# xmcd CD database file
# Copyright (C) 1993-1996 Ti Kan
#
# Track frame offsets:
# 150
# 13740
# 28530
# 40735
# 54814
# 67610
# 80745
# 94940
# 108552
# 120715
#
# Disc length: 1777 seconds
#
# Revision: 0
# Processed by: cddbd v1.4b41PL1 Copyright (c) Steve Scherf et al.
# Submitted via: inCDius 1.1b2
#
DISCID=7506ef0a
DTITLE=Various Artist - The Chess 50th Anniversary Sampler
DYEAR=1900
DGENRE=
TTITLE0=Muddy Waters - Rollin' and Tumblin', Part one
TTITLE1=John Lee Hooker - Sugar Mama
TTITLE2=Little Walter - My Babe
TTITLE3=Bo Diddley - Before You Acuse Me
TTITLE4=Jimmy Rogers - Rock The House
TTITLE5=Howlin' Wolf - I Ain't Superstitious
TTITLE6=Sonny Boy Williamson - Help Me
TTITLE7=Buddy Guy - My Time After A While
TTITLE8=Little Milton - We're Gonna Make It
TTITLE9=Etta James - Something's Got A Hold On Me
EXTD=
EXTT0=
EXTT1=
EXTT2=
EXTT3=
EXTT4=
EXTT5=
EXTT6=
EXTT7=
EXTT8=
EXTT9=
PLAYORDER=
